# xmcd
#
# Track frame offsets:
#	150
#	18761
#	43939
#	59012
#	75371
#	91798
#	108618
#	130814
#	147037
#	169107
#	189595
#	210092
#
# Disc length: 2895 seconds
#
# Revision: 1
# Processed by: cddbd v1.5.2PL0 Copyright (c) Steve Scherf et al.
# Submitted via: EZCDAudioConverter 9.1.1.1
#
DISCID=960b4d0c
DTITLE=Birgül Ünlü - Bir Gül Varmış
DYEAR=2008
DGENRE=
TTITLE0=Esmerim
TTITLE1=Bir Gül Varmış
TTITLE2=Elmalı
TTITLE3=Tek Başımayım
TTITLE4=Yastık Yorgan
TTITLE5=Satılık Kader
TTITLE6=Turuncu Ağaçlar
TTITLE7=Kurnaz Tilki.
TTITLE8=Allahından Bulasın
TTITLE9=Sen de Yanarsın
TTITLE10=İmkansızım
TTITLE11=Elmalı (Remix)
EXTD=
EXTT0=
EXTT1=
EXTT2=
EXTT3=
EXTT4=
EXTT5=
EXTT6=
EXTT7=
EXTT8=
EXTT9=
EXTT10=
EXTT11=
PLAYORDER=
